# xmcd
#
# Track frame offsets:
#	150
#	13192
#	32077
#	50115
#	66277
#	85610
#	99430
#	121137
#	137150
#	151715
#	165797
#	182867
#	196387
#	209697
#	229365
#
# Disc length: 3398 seconds
#
# Revision: 0
# Processed by: cddbd v1.5.2PL0 Copyright (c) Steve Scherf et al.
# Submitted via: audiograbber 1.83.01
#
DISCID=c90d440f
DTITLE=Carolyn Hester - From These Hills
DYEAR=1996
DGENRE=Folk
TTITLE0=From These Hills
TTITLE1=Flatlands Of texas
TTITLE2=The Names Of Trees
TTITLE3=Ain't It Too Bad
TTITLE4=The Crow On The Cradle
TTITLE5=Don't Know What I Did Before Without You
TTITLE6=Watch My Dream Boats Sail
TTITLE7=Think About The Rain
TTITLE8=Nanci's Song
TTITLE9=Pack Up Your Sorrows
TTITLE10=Deep Green
TTITLE11=Guess I'm Getting Older
TTITLE12=Lonesome Tears
TTITLE13=The Little Girl Who Saved America
TTITLE14=Cycle Of Seven
EXTD=
EXTT0=
EXTT1=
EXTT2=
EXTT3=
EXTT4=
EXTT5=
EXTT6=
EXTT7=
EXTT8=
EXTT9=
EXTT10=
EXTT11=
EXTT12=
EXTT13=
EXTT14=
PLAYORDER=
